<?xml version="1.0" standalone="no"?>
<!DOCTYPE svg PUBLIC "-//W3C//DTD SVG 20010904//EN"
 "http://www.w3.org/TR/2001/REC-SVG-20010904/DTD/svg10.dtd">
<svg version="1.0" xmlns="http://www.w3.org/2000/svg"
 width="56.000000pt" height="54.000000pt" viewBox="0 0 56.000000 54.000000"
 preserveAspectRatio="xMidYMid meet">

<g transform="translate(0.000000,54.000000) scale(0.100000,-0.100000)"
fill="#000000" stroke="none">
<path d="M108 511 c-125 -80 -143 -247 -39 -351 69 -69 150 -86 244 -53 l47
17 63 -62 c34 -34 70 -62 78 -62 16 0 59 40 59 55 0 5 -30 39 -66 76 l-65 66
17 52 c31 96 -6 204 -88 259 -35 23 -54 28 -122 30 -76 3 -84 1 -128 -27z
m192 -59 c103 -51 108 -200 8 -263 -26 -16 -45 -19 -91 -16 -51 3 -62 8 -94
40 -32 32 -37 43 -40 94 -3 46 0 65 16 91 43 68 128 91 201 54z"/>
</g>
</svg>
